<svg xmlns="http://www.w3.org/2000/svg" viewBox="0 0 247.61 50.21" width="247.61" height="50.21"><defs><style>.cls-1{fill:#010101;}.cls-2{fill:#fec136;}</style></defs><path class="cls-1" d="M76.08 8.1H65.44A1.36 1.36 0 0 0 64 9.57v32a1.42 1.42 0 0 0 1.44 1.53h3.92A1.58 1.58 0 0 0 71 41.57V34.1c0-.87.66-2 1.54-2h3.54a11.88 11.88 0 0 0 12.26-11.87 11.65 11.65 0 0 0-3.6-8.58 11.75 11.75 0 0 0-8.66-3.55zm3.7 15.7a4.85 4.85 0 0 1-3.7 1.3h-3.54c-.88 0-1.54-.08-1.54-1v-7.43a1.53 1.53 0 0 1 1.54-1.57h3.54a5 5 0 0 1 3.7 1.55 4.93 4.93 0 0 1 0 7.16zM113.63 31.08a12.5 12.5 0 0 0 4.07-3.7 11.78 11.78 0 0 0 2.22-7 11.8 11.8 0 0 0-3.6-8.65 11.8 11.8 0 0 0-8.66-3.6H97.08C96.2 8.1 96 8.68 96 9.56v32c0 .88.2 1.53 1.08 1.53H101c.88 0 2-.65 2-1.53v-6.12a1.46 1.46 0 0 1 2.7-.9l5.3 7.9a1.4 1.4 0 0 0 1.2.65h4.67a1.57 1.57 0 0 0 1.3-2.47l-5.07-7.28a1.57 1.57 0 0 1 .53-2.27zm-2.25-7.27a4.85 4.85 0 0 1-3.7 1.3h-3.5c-.88 0-1.18-.08-1.18-1v-7.43c0-.88.3-1.57 1.18-1.57h3.5a5 5 0 0 1 3.7 1.55 4.93 4.93 0 0 1 0 7.16zM146.84 8.1H129c-.88 0-1 .6-1 1.47v32c0 .88.16 1.53 1 1.53h17.8c.88 0 1.16-.65 1.16-1.53v-3.9c0-.9-.28-1.56-1.16-1.56h-10.7c-.88 0-1.14-.74-1.14-1.62v-3.92c0-.88.26-1.45 1.14-1.45h7.47c.88 0 2.4-.84 2.4-1.72v-3.6c0-.88-1.52-1.67-2.4-1.67h-7.47c-.88 0-1.14-.62-1.14-1.5v-3.93c0-.88.26-1.57 1.14-1.57h10.7c.88 0 1.16-.74 1.16-1.62v-3.9c.04-.9-.24-1.48-1.12-1.48zM172.4 24.8a14.44 14.44 0 0 0-3.45-1.6q-1.64-.47-2-.6a9.7 9.7 0 0 1-2.3-1.18 3.15 3.15 0 0 1-1.5-2.83 3.36 3.36 0 0 1 .85-2.3 3.53 3.53 0 0 1 2.58-1.2 3.38 3.38 0 0 1 2.52 1.05 4.44 4.44 0 0 1 .8 1.46 2.18 2.18 0 0 0 1.82 1.5H175a2.12 2.12 0 0 0 1.9-2.5 10.44 10.44 0 0 0-2.9-5.27 10.4 10.4 0 0 0-14.82-.1 10.05 10.05 0 0 0-3.08 7.38 7.84 7.84 0 0 0 1.4 4.8 12.58 12.58 0 0 0 3.2 3.08 15 15 0 0 0 3.33 1.7l1.9.66 2.4.9q1.87.68 1.76 3.12a3.13 3.13 0 0 1-.67 1.8 3.47 3.47 0 0 1-2.82 1.42 3.4 3.4 0 0 1-2.44-1.08 4.56 4.56 0 0 1-.67-1.43 2.13 2.13 0 0 0-1.82-1.5h-3.42a2.1 2.1 0 0 0-1.9 2.5 10.44 10.44 0 0 0 2.86 5.27 10.18 10.18 0 0 0 7.42 3.16 10.46 10.46 0 0 0 10.48-10.45 7.6 7.6 0 0 0-1.45-4.8 12.13 12.13 0 0 0-3.27-2.96zM242.47 13.25a17.4 17.4 0 0 0-24.7 0 16.85 16.85 0 0 0-5.13 12.34 16.84 16.84 0 0 0 5.13 12.4 17.43 17.43 0 0 0 24.7 0 16.82 16.82 0 0 0 5.14-12.36 16.83 16.83 0 0 0-5.13-12.4zM237.53 33a10.48 10.48 0 0 1-17.9-7.4 10.14 10.14 0 0 1 3.08-7.42 10.42 10.42 0 0 1 14.83 0 10.1 10.1 0 0 1 3.1 7.4 10.06 10.06 0 0 1-3.1 7.42zM207 8.1h-21.14A1.87 1.87 0 0 0 184 9.84v3.6a1.82 1.82 0 0 0 1.86 1.66h5.35a1.8 1.8 0 0 1 1.8 1.73v24.6a1.6 1.6 0 0 0 1.6 1.67h3.62a1.74 1.74 0 0 0 1.78-1.66v-24.6a1.66 1.66 0 0 1 1.62-1.74H207a2 2 0 0 0 2-1.67v-3.6a2 2 0 0 0-2-1.73z"/><path class="cls-2" d="M1.95 16.93a2.43 2.43 0 0 0-1.5 1.46q-.22.82-.4 1.67C-.37 24.13 1.64 31.6 4.72 40.3a25.16 25.16 0 0 0 9.66 7.7C11.74 33 7.4 15.16 1.96 16.93zM26.3 24.6c-3.15 9.1-5.6 25.28-5.6 25.28a15.64 15.64 0 0 0 6.72-.1A156 156 0 0 0 32 26.68a27.6 27.6 0 0 1-5.7-2.08z"/><path class="cls-2" d="M24.37 0A25 25 0 0 0 7 7c6 11.44 9 34.56 9.9 42l1.42.4c.24-5.5.94-20.12 1.85-30.73.34-4 4.63-5.2 7.37-4.6S44.8 15.5 44.8 21.6c0 5.44-7.93 5.55-10.64 5.43v.85l-.3 2.7a130.34 130.34 0 0 1-2.5 13.14l-.08.3-.07.3-.3 1.2-.2.48v.07l-.05.22v.07l-.06.2v.07l-.18.66v1.17l-.05.2V49.55a25.08 25.08 0 0 0-6-49.55z"/></svg>