<svg xmlns="http://www.w3.org/2000/svg" viewBox="0 0 49.44 50.21"><defs><style>.cls-1{fill:#000;}</style></defs><path class="cls-1" d="M1.95 16.93a2.43 2.43 0 0 0-1.5 1.46q-.22.82-.4 1.67C-.37 24.13 1.64 31.6 4.72 40.3a25.16 25.16 0 0 0 9.66 7.7C11.74 33 7.4 15.16 1.96 16.93zM26.3 24.6c-3.15 9.1-5.6 25.28-5.6 25.28a15.64 15.64 0 0 0 6.72-.1A156 156 0 0 0 32 26.68a27.6 27.6 0 0 1-5.7-2.08z"/><path class="cls-1" d="M24.37 0A25 25 0 0 0 7 7c6 11.44 9 34.56 9.9 42l1.42.4c.24-5.5.94-20.12 1.85-30.73.34-4 4.63-5.2 7.37-4.6S44.8 15.5 44.8 21.6c0 5.44-7.93 5.55-10.64 5.43v.85l-.3 2.7a130.34 130.34 0 0 1-2.5 13.14l-.08.3-.07.3-.3 1.2-.2.48v.07l-.05.22v.07l-.06.2v.07l-.18.66v1.17l-.05.2V49.55a25.08 25.08 0 0 0-6-49.55z"/></svg>